<svg xmlns="http://www.w3.org/2000/svg" viewBox="0 0 208.13 38.14"><defs><style>.cls-1{fill:#1e1819;}</style></defs><g id="Capa_2" data-name="Capa 2"><g id="Layer_1" data-name="Layer 1"><path d="M23.59,33.38a13.1,13.1,0,0,1-10.18,4.76C6,38.14,0,33.18,0,25.48S6,12.81,13.41,12.81c7,0,11.32,5,11.32,12.67v2.33H7.45a5.56,5.56,0,0,0,5.61,4.67,6.37,6.37,0,0,0,5.32-2.93ZM17.28,22.75a4.46,4.46,0,0,0-4.57-4.57,5,5,0,0,0-5.26,4.57Z"/><path d="M42.91,20.51a5.31,5.31,0,0,0-4.32-2c-1.24,0-2.73.54-2.73,2,0,3.58,12.57.55,12.57,9.74,0,6.16-6,7.94-11.13,7.94-3.38,0-7.1-.84-9.49-3.27l4.52-5a6.47,6.47,0,0,0,5.27,2.63c1.69,0,3.38-.44,3.38-1.74,0-3.87-12.57-.59-12.57-9.78,0-5.66,5.07-8.15,10.13-8.15,3.18,0,6.71.8,8.94,3.18Z"/><path d="M68.69,19.37H62.13v8.05c0,2.58.3,4.47,3.53,4.47a5.33,5.33,0,0,0,3-.7V37.4a15.33,15.33,0,0,1-5.21.74c-5,0-8.8-2-8.8-7.3V19.37H49.92v-6h4.76V6.26h7.45v7.15h6.56Z"/><path d="M95.71,37.55H88.56V34.27h-.1a7.83,7.83,0,0,1-7,3.87c-7.55,0-8.94-5-8.94-11.42V13.41h7.45V25.23c0,2.78,0,6.36,3.87,6.36s4.47-3,4.47-6.16v-12h7.45Z"/><path d="M126.31,37.55h-6.86V34.37h-.1a9.34,9.34,0,0,1-7.4,3.77c-7.15,0-11.87-5.16-11.87-12.46,0-6.71,4.17-12.87,11-12.87,3.08,0,6,.85,7.65,3.18h.1V0h7.45ZM113.49,19.37c-3.72,0-6,2.48-6,6.11s2.24,6.11,6,6.11,6-2.48,6-6.11S117.22,19.37,113.49,19.37Z"/><path d="M136.09,1.49a4.32,4.32,0,1,1-4.32,4.32A4.33,4.33,0,0,1,136.09,1.49Zm-3.72,11.92h7.45V37.55h-7.45Z"/><path d="M157.7,12.81c7.45,0,13.41,5,13.41,12.67s-6,12.66-13.41,12.66-13.41-5-13.41-12.66S150.25,12.81,157.7,12.81Zm0,18.78c3.72,0,6-2.48,6-6.11s-2.24-6.11-6-6.11-6,2.48-6,6.11S154,31.59,157.7,31.59Z"/><path class="cls-1" d="M208.13,35.05l-4.49-4.5A26,26,0,0,0,205.56,20c0-11-4.46-18.13-13.62-18.13-5.05,0-8.68,2.22-10.89,6.09l-4.11-4.1L175.85,5l4.46,4.46A26.31,26.31,0,0,0,178.42,20c0,10.9,4.46,18,13.52,18,5.09,0,8.72-2.21,10.95-6L207,36.14ZM191.94,8.48c5.7,0,7.43,5.11,7.43,11.52a21.87,21.87,0,0,1-.64,5.64L185.78,12.7A6.27,6.27,0,0,1,191.94,8.48Zm0,22.88c-5.55,0-7.33-5.06-7.33-11.36a22.9,22.9,0,0,1,.62-5.65l12.94,12.93A6.31,6.31,0,0,1,191.94,31.36Z"/></g></g></svg>