<svg xmlns="http://www.w3.org/2000/svg" viewBox="0 0 410.22 317.22"><defs><style>.cls-1{fill:#1e1819;}</style></defs><g id="Capa_2" data-name="Capa 2"><g id="Layer_1" data-name="Layer 1"><rect class="cls-1" x="179.1" width="23.5" height="317.22"/><path class="cls-1" d="M410.22,221.42,389.78,201c5.84-13,8.75-29.28,8.75-48,0-50.06-20.3-82.49-61.94-82.49-23,0-39.48,10.12-49.57,27.74L268.36,79.56l-5,5,20.3,20.3c-5.75,13-8.61,29.34-8.61,48.12,0,49.57,20.31,82,61.54,82,23.12,0,39.64-10,49.78-27.41l18.85,18.85ZM336.59,100.57c25.89,0,33.76,23.27,33.76,52.41a100,100,0,0,1-2.9,25.67l-58.89-58.89C313.5,108,322.29,100.57,336.59,100.57Zm0,104.1c-25.28,0-33.36-23-33.36-51.69a103.28,103.28,0,0,1,2.83-25.72l58.83,58.83C359.91,197.46,351.07,204.67,336.59,204.67Z"/><path class="cls-1" d="M110.76,115.15C103.91,107,94,102.33,81.14,102.33c-26.09,0-45.32,21.22-45.32,50.4S55.05,203.14,80,203.14c13.93,0,25.21-6.2,32.28-16.81l28.74,21.46C128,226.36,105.9,235,84.45,235,35.59,235,0,202.92,0,152.73S35.59,70.49,84.45,70.49c17.47,0,39.58,6,52.84,23Z"/></g></g></svg>