<svg xmlns="http://www.w3.org/2000/svg" viewBox="0 0 403.51 463.52"><defs><style>.cls-1{fill:#fff;}</style></defs><g id="Capa_2" data-name="Capa 2"><g id="Layer_1" data-name="Layer 1"><path class="cls-1" d="M98,53.64c-3.74-4.46-9.16-7-16.15-7-14.23,0-24.72,11.58-24.72,27.49s10.49,27.49,24.11,27.49a20.42,20.42,0,0,0,17.61-9.17l15.67,11.7C107.42,114.29,95.36,119,83.67,119,57,119,37.61,101.5,37.61,74.14S57,29.29,83.67,29.29c9.52,0,21.57,3.25,28.81,12.54Z"/><path class="cls-1" d="M198.33,29.29c26.64,0,46,17.48,46,44.85S225,119,198.33,119s-46.06-17.49-46.06-44.85S171.68,29.29,198.33,29.29Zm0,72.34c16,0,26.52-11.58,26.52-27.49s-10.49-27.49-26.52-27.49S171.8,58.23,171.8,74.14,182.29,101.63,198.33,101.63Z"/><path class="cls-1" d="M279.86,31.46h25.56l36.29,59.32H342V31.46h18.81v85.36H336.17L298.91,56.05h-.24v60.77H279.86Z"/><path class="cls-1" d="M98,206.88c-3.74-4.46-9.16-7-16.15-7-14.23,0-24.72,11.57-24.72,27.49s10.49,27.48,24.11,27.48a20.43,20.43,0,0,0,17.61-9.15l15.67,11.69c-7.11,10.13-19.17,14.83-30.86,14.83-26.65,0-46.06-17.49-46.06-44.85S57,182.52,83.67,182.52c9.52,0,21.57,3.26,28.81,12.54Z"/><path class="cls-1" d="M157.57,184.7h58v17.36H176.38V218h37v17.36h-37V252.7h41.36v17.36H157.57Z"/><path class="cls-1" d="M280,184.7h31.71c17.72,0,32.43,5.67,32.43,25.92,0,20-13.62,26.16-31.59,26.16H298.78v33.28H280Zm18.81,36.17h12.53c6.64,0,13.27-2.3,13.27-10.25,0-8.81-8.92-10-16.16-10h-9.64Z"/><path class="cls-1" d="M62,354.58H37.61V337.94h67.52v16.64H80.77V423.3H62Z"/><path class="cls-1" d="M191.06,335.77c26.64,0,46.05,17.49,46.05,44.85s-19.41,44.85-46.05,44.85S145,408,145,380.62,164.41,335.77,191.06,335.77Zm0,72.34c16,0,26.52-11.58,26.52-27.49s-10.49-27.49-26.52-27.49-26.53,11.58-26.53,27.49S175,408.11,191.06,408.11Z"/><path class="cls-1" d="M363.11,420.47l-11.41-11.4c3.27-7.25,4.89-16.33,4.89-26.77,0-27.91-11.33-46-34.55-46-12.83,0-22,5.64-27.64,15.47L284,341.36l-2.79,2.79,11.32,11.32c-3.2,7.27-4.8,16.36-4.8,26.83C287.72,410,299.05,428,322,428c12.9,0,22.11-5.6,27.76-15.29l10.52,10.51ZM322,353.07c14.44,0,18.83,13,18.83,29.23a55.67,55.67,0,0,1-1.62,14.32l-32.84-32.85C309.16,357.23,314.07,353.07,322,353.07Zm0,58.06c-14.1,0-18.6-12.84-18.6-28.83A57.31,57.31,0,0,1,305,368l32.81,32.81C335.05,407.11,330.12,411.13,322,411.13Z"/><path class="cls-1" d="M403.51,463.52H0V0H403.51ZM6,457.52H397.51V6H6Z"/></g></g></svg>