<svg xmlns="http://www.w3.org/2000/svg" viewBox="0 0 205.8 55.54"><defs><style>.cls-1{fill:#003062;}</style></defs><g id="Capa_2" data-name="Capa 2"><g id="Layer_1" data-name="Layer 1"><polygon class="cls-1" points="84.76 15.01 90.14 15.01 90.14 43.53 86.8 43.53 86.8 43.57 71.8 24.32 71.8 43.53 66.42 43.53 66.42 15.05 70.78 15.05 84.76 32.7 84.76 15.01"/><path class="cls-1" d="M107.87,21l-5.3,12.12h10.6Zm7.46,17.13H100.41L98,43.53H92.14l12.8-28.48h5.86l12.8,28.48h-5.87Z"/><path class="cls-1" d="M131.32,38.52h8.24c2.2,0,5.33-.73,5.33-3.42s-3.13-3.9-5.33-3.9h-8.24Zm0-12h8.24c3.38,0,4.48-1.42,4.48-3.05,0-1.3-1.06-3.5-4.48-3.5h-8.24Zm18.06-3.17a5.79,5.79,0,0,1-3.71,5.49c3.34,1,4.56,4.56,4.56,6.35,0,6.34-4.76,8.38-10.67,8.38H126V15.05h13.53c5.62,0,9.82,2.52,9.82,8.26Z"/><polygon class="cls-1" points="158.81 15.05 158.81 38.56 173.49 38.56 173.49 43.53 153.44 43.53 153.44 15.05 158.81 15.05"/><path class="cls-1" d="M190.07,21l-5.3,12.12h10.6Zm7.46,17.13H182.61l-2.44,5.37h-5.83l12.8-28.48H193L205.8,43.53h-5.87Z"/><path class="cls-1" d="M0,0,4.17,6.93l2.67,4.44,9.88,16.4L33.44,55.54,50.16,27.77l9.75-16.21,2.68-4.42L66.88,0ZM54.2,10.93,45.58,25.24,33.44,45.4,21.3,25.24,12.59,10.78,9.88,6.27l-.72-1.2H57.72L56.9,6.45Z"/></g></g></svg>