<svg xmlns="http://www.w3.org/2000/svg" viewBox="0 0 243.05 163.96"><defs><style>.cls-1,.cls-2{fill:none;stroke-linecap:round;stroke-linejoin:round;stroke-width:0.81px;}.cls-1{stroke:#b0b0b0;}.cls-2{stroke:#333;}</style></defs><g id="Capa_2" data-name="Capa 2"><g id="Layer_1" data-name="Layer 1"><polygon class="cls-1" points="158.95 97.48 54.83 97.48 26.24 122.55 33.69 97.48 0.59 97.48 0.59 0.4 158.95 0.4 158.95 97.48"/><path class="cls-2" d="M.4,20.52C15.17,34.92,36.54,38.17,56,31.22c1.77-.64,3.7-1.54,4.35-3.3a5.06,5.06,0,0,0-.49-4c-2.07-4-5.28-4.2-9.79-3.61s-8.49,3.32-11.61,6.62a33.78,33.78,0,0,0-9,19.39c-.5,4.42,0,9.16,2.58,12.77,3.21,4.47,9.42,6.35,14.73,4.87A16.81,16.81,0,0,0,57.84,52.71a9.51,9.51,0,0,0-.18-7.08c-1.11-2.15-3.89-3.55-6.08-2.5-1.92.91-2.7,3.2-3.24,5.26-1.89,7.2-2.89,15.64,1.85,21.38,3.66,4.42,9.76,5.92,15.48,6.51C79.13,77.67,94.94,74.06,101,62c3-6.09,3-13.24,2.29-20-.79-7.32-2.58-15-7.93-20.1-5.72-5.41-14.84-6.51-22-3.29S61.05,28.89,59.5,36.61c-.84,4.23-.3,9.4,3.38,11.65,4.12,2.53,9.7-.29,12.39-4.32C80.92,35.46,78,23.8,72.5,15.2a17.86,17.86,0,0,0-5.12-5.7,15.68,15.68,0,0,0-8.7-2.07C47,7.58,36.29,14.75,28.78,23.74c-7.06,8.45-12,19-12.29,30S21.18,76.12,30.4,82.14c5,3.28,11,4.85,16.94,5.69A80.44,80.44,0,0,0,99.47,77.28a80.35,80.35,0,0,0,33.88-41c1.66-4.54,2.7-10.19-.59-13.72-3.48-3.75-10.08-2.62-13.68,1s-4.93,8.88-6,13.88c-2.42,11.41-4.18,23.13-2.92,34.73s5.81,23.17,14.39,31.07a47.88,47.88,0,0,0,19.94,10.52c8.23,2.24,17.12,2.78,25.23.15A34,34,0,0,0,185.57,103c5.94-7.36,8.58-17.45,6.36-26.64s-9.46-17.15-18.59-19.63-19.73,1-25.16,8.73c-3.32,4.72-4.63,10.54-5.53,16.23-1.82,11.6-2,24.33,4.57,34.08,4.81,7.17,12.87,11.84,21.37,13.41s17.36.22,25.42-2.89c3.94-1.52,7.82-3.54,10.57-6.74s4.1-7.23,5-11.27A66.62,66.62,0,0,0,211,86.06c-.85-7.9-3.62-16.32-10.34-20.55-7.08-4.46-16.42-2.92-24.14.32-8.25,3.46-16.63,10.28-16.3,19.22.3,8.09,7.56,14,14.62,18,10.85,6.08,23.11,10.21,35.54,9.75s25-6,32.25-16.1"/><polygon class="cls-1" points="84.29 138.5 188.41 138.5 217 163.56 209.55 138.5 242.65 138.5 242.65 41.42 84.29 41.42 84.29 138.5"/></g></g></svg>