<svg xmlns="http://www.w3.org/2000/svg" viewBox="0 0 1367 414"><defs><style>.cls-1{fill:#1b1b1b;}.cls-2{opacity:0.15;}.cls-3{fill:none;stroke:#fff;stroke-miterlimit:10;}</style></defs><g id="Capa_2" data-name="Capa 2"><g id="Layer_1" data-name="Layer 1"><rect class="cls-1" width="1367" height="414"/><g class="cls-2"><line class="cls-3" x1="101" y1="411" x2="105.92" y2="411"/><line class="cls-3" x1="101" y1="407" x2="105.92" y2="407"/><line class="cls-3" x1="101" y1="403" x2="105.92" y2="403"/><line class="cls-3" x1="101" y1="399" x2="105.92" y2="399"/><line class="cls-3" x1="101" y1="395" x2="105.92" y2="395"/><line class="cls-3" x1="101" y1="391" x2="105.92" y2="391"/><line class="cls-3" x1="101" y1="387" x2="105.92" y2="387"/><line class="cls-3" x1="101" y1="383" x2="105.92" y2="383"/><line class="cls-3" x1="101" y1="379" x2="105.92" y2="379"/><line class="cls-3" x1="101" y1="375" x2="105.92" y2="375"/><line class="cls-3" x1="101" y1="371" x2="105.92" y2="371"/><line class="cls-3" x1="101" y1="367" x2="105.92" y2="367"/><line class="cls-3" x1="101" y1="363" x2="105.92" y2="363"/><line class="cls-3" x1="101" y1="359" x2="105.92" y2="359"/><line class="cls-3" x1="101" y1="355" x2="105.92" y2="355"/><line class="cls-3" x1="101" y1="351" x2="105.92" y2="351"/><line class="cls-3" x1="101" y1="347" x2="105.92" y2="347"/><line class="cls-3" x1="101" y1="343" x2="105.92" y2="343"/><line class="cls-3" x1="101" y1="339" x2="105.92" y2="339"/><line class="cls-3" x1="101" y1="335" x2="105.92" y2="335"/><line class="cls-3" x1="101" y1="331" x2="105.92" y2="331"/><line class="cls-3" x1="101" y1="327" x2="105.92" y2="327"/><line class="cls-3" x1="101" y1="323" x2="105.92" y2="323"/><line class="cls-3" x1="101" y1="319" x2="105.92" y2="319"/><line class="cls-3" x1="101" y1="315" x2="105.92" y2="315"/><line class="cls-3" x1="101" y1="311" x2="105.92" y2="311"/><line class="cls-3" x1="101" y1="307" x2="105.92" y2="307"/><line class="cls-3" x1="101" y1="303" x2="105.92" y2="303"/><line class="cls-3" x1="101" y1="299" x2="105.92" y2="299"/><line class="cls-3" x1="101" y1="295" x2="105.92" y2="295"/><line class="cls-3" x1="101" y1="291" x2="105.92" y2="291"/><line class="cls-3" x1="101" y1="287" x2="105.92" y2="287"/><line class="cls-3" x1="101" y1="283" x2="105.92" y2="283"/><line class="cls-3" x1="101" y1="279" x2="105.92" y2="279"/><line class="cls-3" x1="101" y1="275" x2="105.92" y2="275"/><line class="cls-3" x1="101" y1="271" x2="105.92" y2="271"/><line class="cls-3" x1="101" y1="267" x2="105.92" y2="267"/><line class="cls-3" x1="101" y1="263" x2="105.92" y2="263"/><line class="cls-3" x1="101" y1="259" x2="105.92" y2="259"/><line class="cls-3" x1="101" y1="255" x2="105.92" y2="255"/><line class="cls-3" x1="101" y1="251" x2="105.92" y2="251"/><line class="cls-3" x1="101" y1="247" x2="105.92" y2="247"/><line class="cls-3" x1="101" y1="243" x2="105.92" y2="243"/><line class="cls-3" x1="101" y1="239" x2="105.92" y2="239"/><line class="cls-3" x1="101" y1="235" x2="105.92" y2="235"/><line class="cls-3" x1="101" y1="231" x2="105.92" y2="231"/><line class="cls-3" x1="101" y1="227" x2="105.92" y2="227"/><line class="cls-3" x1="101" y1="223" x2="105.92" y2="223"/><line class="cls-3" x1="101" y1="219" x2="105.92" y2="219"/><line class="cls-3" x1="101" y1="215" x2="105.92" y2="215"/><line class="cls-3" x1="101" y1="211" x2="105.92" y2="211"/><line class="cls-3" x1="101" y1="207" x2="105.92" y2="207"/><line class="cls-3" x1="101" y1="203" x2="105.92" y2="203"/><line class="cls-3" x1="101" y1="199" x2="105.92" y2="199"/><line class="cls-3" x1="101" y1="195" x2="105.92" y2="195"/><line class="cls-3" x1="101" y1="191" x2="105.92" y2="191"/><line class="cls-3" x1="101" y1="187" x2="105.92" y2="187"/><line class="cls-3" x1="101" y1="183" x2="105.92" y2="183"/><line class="cls-3" x1="101" y1="179" x2="105.92" y2="179"/><line class="cls-3" x1="101" y1="175" x2="105.92" y2="175"/><line class="cls-3" x1="101" y1="171" x2="105.92" y2="171"/><line class="cls-3" x1="101" y1="167" x2="105.92" y2="167"/><line class="cls-3" x1="101" y1="163" x2="105.92" y2="163"/><line class="cls-3" x1="101" y1="159" x2="105.92" y2="159"/><line class="cls-3" x1="101" y1="155" x2="105.92" y2="155"/><line class="cls-3" x1="101" y1="151" x2="105.92" y2="151"/><line class="cls-3" x1="101" y1="147" x2="105.92" y2="147"/><line class="cls-3" x1="101" y1="143" x2="105.92" y2="143"/><line class="cls-3" x1="101" y1="139" x2="105.92" y2="139"/><line class="cls-3" x1="101" y1="135" x2="105.92" y2="135"/><line class="cls-3" x1="101" y1="131" x2="105.92" y2="131"/><line class="cls-3" x1="101" y1="127" x2="105.92" y2="127"/><line class="cls-3" x1="101" y1="123" x2="105.92" y2="123"/><line class="cls-3" x1="101" y1="119" x2="105.92" y2="119"/><line class="cls-3" x1="101" y1="115" x2="105.92" y2="115"/><line class="cls-3" x1="101" y1="111" x2="105.92" y2="111"/><line class="cls-3" x1="101" y1="107" x2="105.92" y2="107"/><line class="cls-3" x1="101" y1="103" x2="105.92" y2="103"/><line class="cls-3" x1="101" y1="99" x2="105.92" y2="99"/><line class="cls-3" x1="101" y1="95" x2="105.92" y2="95"/><line class="cls-3" x1="101" y1="91" x2="105.92" y2="91"/><line class="cls-3" x1="101" y1="87" x2="105.92" y2="87"/><line class="cls-3" x1="101" y1="83" x2="105.92" y2="83"/><line class="cls-3" x1="101" y1="79" x2="105.92" y2="79"/><line class="cls-3" x1="101" y1="75" x2="105.92" y2="75"/><line class="cls-3" x1="101" y1="71" x2="105.92" y2="71"/><line class="cls-3" x1="101" y1="67" x2="105.92" y2="67"/><line class="cls-3" x1="101" y1="63" x2="105.92" y2="63"/><line class="cls-3" x1="101" y1="59" x2="105.92" y2="59"/><line class="cls-3" x1="101" y1="55" x2="105.92" y2="55"/><line class="cls-3" x1="101" y1="51" x2="105.92" y2="51"/><line class="cls-3" x1="101" y1="47" x2="105.92" y2="47"/><line class="cls-3" x1="101" y1="43" x2="105.92" y2="43"/><line class="cls-3" x1="101" y1="39" x2="105.92" y2="39"/><line class="cls-3" x1="101" y1="35" x2="105.92" y2="35"/><line class="cls-3" x1="101" y1="31" x2="105.92" y2="31"/><line class="cls-3" x1="101" y1="27" x2="105.92" y2="27"/><line class="cls-3" x1="101" y1="23" x2="105.92" y2="23"/><line class="cls-3" x1="101" y1="19" x2="105.92" y2="19"/><line class="cls-3" x1="101" y1="15" x2="105.92" y2="15"/><line class="cls-3" x1="101" y1="11" x2="105.92" y2="11"/><line class="cls-3" x1="101" y1="7" x2="105.92" y2="7"/><line class="cls-3" x1="101" y1="3" x2="105.92" y2="3"/></g></g></g></svg>