<svg xmlns="http://www.w3.org/2000/svg" viewBox="0 0 827.78 1132.75"><defs><style>.cls-1,.cls-12,.cls-13,.cls-14{fill:none;stroke-width:0.81px;}.cls-1{stroke:#000;}.cls-1,.cls-13{stroke-miterlimit:10;}.cls-2,.cls-5{font-size:12.88px;}.cls-2,.cls-7{font-family:Avenir-Book, Avenir;}.cls-3{letter-spacing:-0.02em;}.cls-4{letter-spacing:-0.02em;}.cls-5{font-family:Avenir-Black, Avenir;}.cls-11,.cls-5,.cls-9{font-weight:800;}.cls-6{letter-spacing:-0.09em;}.cls-7{font-weight:400;}.cls-8{letter-spacing:-0.11em;}.cls-11,.cls-9{font-size:50.08px;font-family:AvenirLTStd-Black, Avenir LT Std;}.cls-9{letter-spacing:-0.1em;}.cls-10{letter-spacing:-0.06em;}.cls-11{letter-spacing:-0.05em;}.cls-12{stroke:#b0b0b0;}.cls-12,.cls-14{stroke-linecap:round;stroke-linejoin:round;}.cls-13{stroke:#666;}.cls-14{stroke:#333;}</style></defs><g id="Capa_2" data-name="Capa 2"><g id="Layer_1" data-name="Layer 1"><line class="cls-1" x1="433.09" y1="64.77" x2="433.09" y2="1029.28"/><rect x="430.47" y="64.37" width="5.23" height="0.81"/><rect x="430.47" y="1028.88" width="5.23" height="0.81"/><path d="M408.87,157.74l-4.66-4.65a26.88,26.88,0,0,0,2-10.93c0-11.4-4.63-18.79-14.11-18.79-5.24,0-9,2.3-11.29,6.32l-4.25-4.25-1.14,1.13L380,131.2a27.51,27.51,0,0,0-2,11c0,11.29,4.63,18.67,14,18.67,5.26,0,9-2.28,11.34-6.24l4.29,4.29ZM392.1,130.22c5.9,0,7.69,5.3,7.69,11.94a22.93,22.93,0,0,1-.66,5.84l-13.42-13.41A6.5,6.5,0,0,1,392.1,130.22Zm0,23.71c-5.76,0-7.6-5.25-7.6-11.77a23.57,23.57,0,0,1,.65-5.86l13.39,13.4A6.52,6.52,0,0,1,392.1,153.93Z"/><text class="cls-2" transform="translate(97.01 186.04)">Realizamos una sesión de coaching con nuest<tspan class="cls-3" x="261.83" y="0">r</tspan><tspan x="265.88" y="0">o grupo</tspan><tspan x="-13.94" y="15.46">inte</tspan><tspan class="cls-3" x="7.76" y="15.46">r</tspan><tspan x="11.8" y="15.46">disciplinario de: Me</tspan><tspan class="cls-4" x="124.88" y="15.46">r</tspan><tspan x="128.93" y="15.46">cadeo, Branding y A</tspan><tspan class="cls-3" x="246.12" y="15.46">r</tspan><tspan x="250.16" y="15.46">quitectura.</tspan><tspan x="-38.11" y="46.38">Especialistas y asi c</tspan><tspan class="cls-3" x="72.6" y="46.38">r</tspan><tspan x="76.64" y="46.38">ear un </tspan><tspan class="cls-4" x="116.26" y="46.38">r</tspan><tspan x="120.31" y="46.38">esultado donde unimos el diseño</tspan><tspan x="95.54" y="61.84">y la estrategia para c</tspan><tspan class="cls-3" x="214.58" y="61.84">r</tspan><tspan x="218.62" y="61.84">ear el concepto.</tspan></text><text class="cls-5" transform="translate(201.6 446.13)">PLANIFICACIÓN <tspan class="cls-6" x="106.39" y="0">P</tspan><tspan x="113.32" y="0">A</tspan><tspan class="cls-3" x="122.87" y="0">R</tspan><tspan x="130.99" y="0">TE TÉCNICA</tspan><tspan class="cls-7"><tspan x="-94.46" y="30.92">Materializamos todos los conceptos en A</tspan><tspan class="cls-3" x="141.52" y="30.92">r</tspan><tspan x="145.57" y="30.92">quitectura.</tspan><tspan x="128.4" y="61.84">- A</tspan><tspan class="cls-3" x="145.11" y="61.84">r</tspan><tspan x="149.15" y="61.84">quitectura</tspan><tspan x="114.05" y="77.3">- Especialidades</tspan><tspan x="176.48" y="92.76">- BIM</tspan><tspan x="127.92" y="108.22">- </tspan><tspan class="cls-6" x="135.79" y="108.22">T</tspan><tspan x="142" y="108.22">ramitología</tspan></tspan><tspan x="4.57" y="139.15">INTERIOR DESIGN &amp; BRANDING</tspan><tspan class="cls-7"><tspan x="101.61" y="170.07">- Inpiration boa</tspan><tspan class="cls-3" x="189.93" y="170.07">r</tspan><tspan x="193.98" y="170.07">ds</tspan><tspan x="133.86" y="185.53">- Style boa</tspan><tspan class="cls-3" x="195.42" y="185.53">r</tspan><tspan x="199.46" y="185.53">d</tspan><tspan x="87.14" y="200.99">- Distribucion interna</tspan><tspan x="140.07" y="216.45">- Materiales</tspan><tspan x="40.83" y="231.91">- P</tspan><tspan class="cls-3" x="56.1" y="231.91">r</tspan><tspan x="60.14" y="231.91">esupuesto base interio</tspan><tspan class="cls-4" x="190.64" y="231.91">r</tspan><tspan x="194.68" y="231.91">es</tspan><tspan x="114.29" y="262.83">- Piezas Graficas</tspan><tspan x="44.63" y="278.29">- Elementos de alto impacto</tspan><tspan x="85.41" y="293.75">- Señalectica General</tspan></tspan></text><text class="cls-5" transform="translate(455.63 337.82)">TRANSFORMAR EL CONCEPTO EN UNA IDEA<tspan class="cls-7"><tspan class="cls-8" x="0" y="30.92">T</tspan><tspan x="5.97" y="30.92">eniendo el Concepto ya cla</tspan><tspan class="cls-4" x="163.72" y="30.92">r</tspan><tspan x="167.77" y="30.92">o, se materializa la idea:</tspan><tspan x="0" y="46.38">Construimos la ma</tspan><tspan class="cls-3" x="106.88" y="46.38">r</tspan><tspan x="110.93" y="46.38">ca y su identidad, la personalidad del </tspan><tspan x="0" y="61.84">p</tspan><tspan class="cls-3" x="7.87" y="61.84">r</tspan><tspan x="11.92" y="61.84">oyecto y su imagen.</tspan></tspan></text><text class="cls-9" transform="translate(453.9 310.03)">1.</text><text class="cls-5" transform="translate(455.63 777.89)"><tspan class="cls-10">V</tspan><tspan x="8.27" y="0">ALIDACIÓN DE NÚMEROS</tspan><tspan class="cls-7"><tspan x="0" y="30.92">En esta etapa, se validará el business plan con la parte técnica </tspan><tspan x="0" y="46.38">antes de come</tspan><tspan class="cls-3" x="84.97" y="46.38">r</tspan><tspan x="89.01" y="46.38">cialización.</tspan></tspan></text><text class="cls-9" transform="translate(453.9 750.09)">3.</text><text class="cls-11" transform="translate(366.84 420.75)">2.</text><text class="cls-5" transform="translate(276.32 899.48)">COMERCIALIZACIÓN<tspan class="cls-7"><tspan x="-183.55" y="30.92">Potencializamos a nuest</tspan><tspan class="cls-3" x="-46.36" y="30.92">r</tspan><tspan x="-42.31" y="30.92">os clientes y a sus ma</tspan><tspan class="cls-4" x="81.07" y="30.92">r</tspan><tspan x="85.12" y="30.92">cas para </tspan><tspan x="-183.04" y="46.38">p</tspan><tspan class="cls-3" x="-175.17" y="46.38">r</tspan><tspan x="-171.12" y="46.38">oyectar su visión y ejecutar su estrategia de negocio.</tspan><tspan x="-20.82" y="77.3">- Renders calidad de venta</tspan><tspan x="-5.1" y="92.76">- Aplicaciones de Ma</tspan><tspan class="cls-3" x="115.67" y="92.76">r</tspan><tspan x="119.71" y="92.76">ca</tspan></tspan></text><text class="cls-11" transform="translate(366.84 874.1)">4.</text><path class="cls-12" d="M105,1068.17a12.37,12.37,0,0,1-10.68-4.08,19.44,19.44,0,0,1-4.51-10.85,14.71,14.71,0,0,1,.47-6.6c.73-2.1,2.22-3.46,4.34-4.78,0,0,70.67-52.61,74.5-67.43s57.44,61.57,30.16,100.1C192.3,1084.32,182.22,1057.05,105,1068.17Z"/><path class="cls-12" d="M160.88,996.13s22.91,29.5,16.73,66.19"/><path class="cls-12" d="M88.26,1043.84c-7.64-.7-15.78,2-20.6,8s-5.6,15.22-.91,21.29c4,5.18,11,7.24,17.54,7.06s14.38-5.18,19.79-9.1"/><path class="cls-12" d="M80.78,1080.51a256,256,0,0,1,5.86,46.63c0,1.53.17,3.25,1.32,4.26a5.32,5.32,0,0,0,3.51.94,45.72,45.72,0,0,0,21.13-4.88,14.73,14.73,0,0,0,5.67-4.39c1.38-2,1.84-4.78.55-6.83a15.26,15.26,0,0,0-2.82-2.8c-3.85-3.6-11.68-33.1-13.36-41.36"/><path class="cls-12" d="M67.66,1051.8s12.58,11.19,8.87,27.45"/><path class="cls-13" d="M202.83,988.94q10.38-9.39,21.56-17.87"/><path class="cls-13" d="M213.36,1013.4c5.43-3.13,11.42-5.17,17-8a68.08,68.08,0,0,0,8.75-5.26"/><path class="cls-13" d="M220.9,1037l29-4.76"/><path class="cls-12" d="M104.55,1080.16l-9.23,3.75a2.07,2.07,0,0,0-1.13,2.71l6.19,14.91a2.93,2.93,0,0,0,3.92,1.55l6-2.74"/><polygon class="cls-12" points="158.95 97.48 54.83 97.48 26.24 122.55 33.69 97.48 0.59 97.48 0.59 0.4 158.95 0.4 158.95 97.48"/><path class="cls-14" d="M.4,20.52C15.17,34.92,36.54,38.17,56,31.22c1.77-.64,3.7-1.54,4.35-3.3a5.06,5.06,0,0,0-.49-4c-2.07-4-5.28-4.2-9.79-3.61s-8.49,3.32-11.61,6.62a33.78,33.78,0,0,0-9,19.39c-.5,4.42,0,9.16,2.58,12.77,3.21,4.47,9.42,6.35,14.73,4.87A16.81,16.81,0,0,0,57.84,52.71a9.51,9.51,0,0,0-.18-7.08c-1.11-2.15-3.89-3.55-6.08-2.5-1.92.91-2.7,3.2-3.24,5.26-1.89,7.2-2.89,15.64,1.85,21.38,3.66,4.42,9.76,5.92,15.48,6.51C79.13,77.67,94.94,74.06,101,62c3-6.09,3-13.24,2.29-20-.79-7.32-2.58-15-7.93-20.1-5.72-5.41-14.84-6.51-22-3.29S61.05,28.89,59.5,36.61c-.84,4.23-.3,9.4,3.38,11.65,4.12,2.53,9.7-.29,12.39-4.32C80.92,35.46,78,23.8,72.5,15.2a17.86,17.86,0,0,0-5.12-5.7,15.68,15.68,0,0,0-8.7-2.07C47,7.58,36.29,14.75,28.78,23.74c-7.06,8.45-12,19-12.29,30S21.18,76.12,30.4,82.14c5,3.28,11,4.85,16.94,5.69A80.44,80.44,0,0,0,99.47,77.28a80.35,80.35,0,0,0,33.88-41c1.66-4.54,2.7-10.19-.59-13.72-3.48-3.75-10.08-2.62-13.68,1s-4.93,8.88-6,13.88c-2.42,11.41-4.18,23.13-2.92,34.73s5.81,23.17,14.39,31.07a47.88,47.88,0,0,0,19.94,10.52c8.23,2.24,17.12,2.78,25.23.15A34,34,0,0,0,185.57,103c5.94-7.36,8.58-17.45,6.36-26.64s-9.46-17.15-18.59-19.63-19.73,1-25.16,8.73c-3.32,4.72-4.63,10.54-5.53,16.23-1.82,11.6-2,24.33,4.57,34.08,4.81,7.17,12.87,11.84,21.37,13.41s17.36.22,25.42-2.89c3.94-1.52,7.82-3.54,10.57-6.74s4.1-7.23,5-11.27A66.62,66.62,0,0,0,211,86.06c-.85-7.9-3.62-16.32-10.34-20.55-7.08-4.46-16.42-2.92-24.14.32-8.25,3.46-16.63,10.28-16.3,19.22.3,8.09,7.56,14,14.62,18,10.85,6.08,23.11,10.21,35.54,9.75s25-6,32.25-16.1"/><polygon class="cls-12" points="84.29 138.5 188.41 138.5 217 163.56 209.55 138.5 242.65 138.5 242.65 41.42 84.29 41.42 84.29 138.5"/><path class="cls-14" d="M658.79,269.51s-2.8-7.48-12.2-18.3S594.93,170.09,659,144c0,0,53.34-16.53,53.65,54.19,0,0-5.31,38.81-11.49,56,0,0-1.77,6.72-1.68,9.9,0,0-34.94,1.37-32.82,11s28.48-5.64,28.48-5.64-25.46,9.26-23.65,15.8,25.87-5.23,25.87-5.23-33.52,12.18-31.21,20.74,25.37-8.36,25.37-8.36l-16.61-27.78s-19.26-33-22.75-55c0,0-1.2-7.85.71-8.35s3.42,3.12,3.42,3.12,8.33,19.74,11.26,19.63,2-22.11,2-22.11-.49-4.77,2.13-4.77,2.42,8.15,2.42,8.15.88,47.27,7.08,63.11"/><path class="cls-12" d="M795.7,217.82s2.56-6.85,11.17-16.76,47.33-74.31-11.32-98.21c0,0-48.86-15.14-49.15,49.63,0,0,4.87,35.56,10.53,51.33,0,0,1.63,6.16,1.54,9.07,0,0,32,1.25,30.07,10.1s-26.1-5.17-26.1-5.17,23.33,8.49,21.67,14.48-23.7-4.79-23.7-4.79,30.71,11.15,28.59,19-23.24-7.65-23.24-7.65L781,213.39s17.64-30.18,20.84-50.35c0,0,1.1-7.19-.65-7.65s-3.14,2.86-3.14,2.86-7.62,18.09-10.31,18S785.88,156,785.88,156s.44-4.37-2-4.37-2.22,7.47-2.22,7.47-.81,43.29-6.49,57.8"/><line class="cls-14" x1="613.57" y1="267.02" x2="624.21" y2="257.89"/><line class="cls-14" x1="597.36" y1="227.7" x2="611.55" y2="223.41"/><line class="cls-14" x1="592.93" y1="176.7" x2="607.69" y2="180.19"/><line class="cls-14" x1="614.54" y1="133.08" x2="624.87" y2="143.15"/><line class="cls-14" x1="655.2" y1="108.25" x2="657.08" y2="122.48"/><line class="cls-14" x1="690.09" y1="131.76" x2="698.41" y2="118.18"/><line class="cls-14" x1="717.74" y1="165.83" x2="729.68" y2="157.91"/><line class="cls-14" x1="727.81" y1="199.65" x2="741.49" y2="200.47"/><line class="cls-14" x1="724.18" y1="236.69" x2="738.14" y2="243.26"/><path class="cls-12" d="M37.78,680.46c12.81,5.67,28.26,13.25,41.53,17.73"/><path class="cls-12" d="M79.31,698.19c6.76,20.88,12,41.27,18.79,62.15"/><path class="cls-12" d="M98.1,760.34c14-12.82,28.32-25.21,43.16-37"/><path class="cls-12" d="M98.1,760.34c-1.17-20.06,2.17-42.05,8-61.27.17-.55.45-1.21,1-1.28a1.54,1.54,0,0,1,1.09.43c18,13.52,38.12,28.49,56.16,42"/><path class="cls-14" d="M79.31,698.19c32.5-15.45,139.9-80.19,147.05-89.13"/><path class="cls-12" d="M226.36,609.06q-95.18,33.3-188.58,71.4"/><path class="cls-12" d="M226.36,609.06c-18.88,44.78-38.5,88.59-62,131.16"/><path class="cls-14" d="M107.16,697.79c38.54-24.47,99.27-61,119.2-88.73"/><path class="cls-12" d="M631,635.14q6.51,0,13,.18a5.4,5.4,0,0,1,3.34.87c1.11.93,1.29,2.54,1.38,4,1,15.66,2.81,61.6,3.53,78.44a6.93,6.93,0,0,1-6.93,7.22H610.8c-19.78,0-43.08-.19-63.44-.3A5.36,5.36,0,0,1,542,720l1.81-73.58c.1-2.58.27-5.34,1.85-7.38,2.15-2.78,6.11-3.26,9.63-3.45,11.78-.65,27.43-1.11,39.22-.5"/><path class="cls-14" d="M570,645.72c3.78,6.46,14.5,28.18,18.56,34.76"/><path class="cls-14" d="M588.53,704.17c16.85-25.32,50.35-105.36,55.51-117.35l-10.8-5c-17.45,33.76-34.06,73.67-44.71,98.7"/><path class="cls-12" d="M569.76,645.48l-11.92,7"/><path class="cls-14" d="M557.84,652.48c10.55,18.64,18.32,35.82,30.69,51.69"/><path class="cls-12" d="M636.93,627.37q7.61,0,15.22.21a6.26,6.26,0,0,1,3.91,1c1.3,1.08,1.5,3,1.61,4.65,1.18,18.32,3.29,72.07,4.13,91.76a8.1,8.1,0,0,1-8.1,8.45H613.36c-23.14,0-50.4-.22-74.22-.35a6.27,6.27,0,0,1-6.23-6.43L535,640.62c.11-3,.32-6.25,2.16-8.64,2.53-3.26,7.15-3.81,11.27-4,13.79-.75,38.1-1.3,51.89-.58"/></g></g></svg>